<svg width="640" height="160" viewBox="0 0 640 160" fill="none" xmlns="http://www.w3.org/2000/svg">
  <rect width="160" height="160" rx="42" fill="#101827"/>
  <path d="M34 109L58 46H74L50 109H34Z" fill="#FF5D52"/>
  <path d="M80 109L104 46H120L96 109H80Z" fill="#F59E0B"/>
  <path d="M53 82H108" stroke="#FFFFFF" stroke-width="10" stroke-linecap="round"/>
  <path d="M207 63.6H242.28C268.76 63.6 286.04 80.4 286.04 103.8C286.04 127.12 268.76 144 242.28 144H207V63.6ZM241 126.72C255.32 126.72 263.24 117.84 263.24 103.8C263.24 89.68 255.32 80.88 241 80.88H228.72V126.72H241Z" fill="#EFF6FF"/>
  <path d="M310.129 144V63.6H331.849V144H310.129Z" fill="#EFF6FF"/>
  <path d="M354.206 144V63.6H374.806L404.086 109.2V63.6H424.686V144H404.086L374.806 98.4V144H354.206Z" fill="#EFF6FF"/>
  <path d="M449.637 144V63.6H471.357V95.28H499.917V63.6H521.637V144H499.917V112.56H471.357V144H449.637Z" fill="#EFF6FF"/>
</svg>

